<svg width="61" height="61" viewBox="0 0 61 61" fill="none" xmlns="http://www.w3.org/2000/svg">
<g clip-path="url(#clip0_85_56)">
<path d="M21.5635 44.7661C26.601 48.4578 32.8466 50.1112 39.0509 49.3957C45.2551 48.6801 50.9604 45.6484 55.0253 40.907C59.0902 36.1656 61.215 30.0642 60.9745 23.8234C60.7341 17.5827 58.1461 11.6629 53.7284 7.24834C49.3107 2.83379 43.389 0.250053 37.1481 0.0140528C30.9072 -0.221948 24.8073 1.90719 20.0688 5.9755C15.3303 10.0438 12.3027 15.7513 11.5916 21.956C10.8805 28.1608 12.5384 34.4052 16.2336 39.4401V39.4363C16.0811 39.5481 15.935 39.6726 15.7952 39.8099L1.11705 54.488C0.401672 55.2029 -0.000423431 56.1727 -0.000782013 57.184C-0.00114059 58.1953 0.400269 59.1654 1.11514 59.8808C1.83002 60.5962 2.7998 60.9983 3.81114 60.9986C4.82248 60.999 5.79255 60.5976 6.50792 59.8827L21.1861 45.2046C21.3241 45.0683 21.4477 44.9218 21.5635 44.7661ZM36.2187 45.7498C33.4651 45.7498 30.7384 45.2074 28.1943 44.1536C25.6503 43.0998 23.3387 41.5553 21.3916 39.6082C19.4445 37.661 17.8999 35.3494 16.8461 32.8054C15.7924 30.2614 15.25 27.5347 15.25 24.781C15.25 22.0274 15.7924 19.3007 16.8461 16.7566C17.8999 14.2126 19.4445 11.901 21.3916 9.95387C23.3387 8.00674 25.6503 6.46219 28.1943 5.40841C30.7384 4.35463 33.4651 3.81226 36.2187 3.81226C41.78 3.81226 47.1135 6.02146 51.0459 9.95387C54.9783 13.8863 57.1875 19.2198 57.1875 24.781C57.1875 30.3423 54.9783 35.6758 51.0459 39.6082C47.1135 43.5406 41.78 45.7498 36.2187 45.7498Z" fill="#AABB97"/>
</g>
<defs>
<clipPath id="clip0_85_56">
<rect width="61" height="61" fill="white" transform="matrix(0 1 -1 0 61 0)"/>
</clipPath>
</defs>
</svg>
